# xmcd
#
# Track frame offsets: 
#        150
#        11500
#        23683
#        34144
#        45296
#        55026
#        64290
#        74897
#        84851
#        94826
#        105810
#        115349
#        125543
#        136883
#
# Disc length: 1961 seconds
#
# Revision: 0
# Processed by: cddbd v1.5.2PL0 Copyright (c) Steve Scherf et al.
# Submitted via: ExactAudioCopy v1.1
#
DISCID=b007a70e
DTITLE=Buck Owens and his Buckaroos - Open Up Your Heart (1966)
DYEAR=2012
DGENRE=Country
TTITLE0=Open Up Your Heart
TTITLE1=Congratulations, You're Absolutely Right
TTITLE2=Think Of Me
TTITLE3=In The Palm Of Your Hand
TTITLE4=You, You, Only You
TTITLE5=Sam's Place
TTITLE6=Waitin' In Your Welfare Line
TTITLE7=A Devil Like Me (Needs An Angel Like You)
TTITLE8=Heart Of Glass
TTITLE9=Cadillac Lane
TTITLE10=No More Me And You
TTITLE11=God Bye, Good Luck, God Bless You
TTITLE12=Open Up Your Heart (Mono Single Version)
TTITLE13=Think Of Me (Mono Single Version)
EXTD=
EXTT0=
EXTT1=
EXTT2=
EXTT3=
EXTT4=
EXTT5=
EXTT6=
EXTT7=
EXTT8=
EXTT9=
EXTT10=
EXTT11=
EXTT12=
EXTT13=
PLAYORDER=
